# xmcd
#
# Track frame offsets:
#	150
#	16362
#	28452
#	39707
#	56447
#	66960
#	78007
#	89077
#	102630
#	114017
#	126587
#	138002
#	149712
#	162825
#	175975
#
# Disc length: 2501 seconds
#
# Revision: 0
# Processed by: cddbd v1.4PL0 Copyright (c) Steve Scherf et al.
# Submitted via: dBpowerAMP V4.0
#
DISCID=d709c30f
DTITLE=Romanticos de la Guitarra  - Vol. IV
DYEAR=1900
DGENRE=Blues
TTITLE0=Vaya con Dios
TTITLE1=La paloma
TTITLE2=Nube gris
TTITLE3=Yo vengo unos ojos negros
TTITLE4=Lisboa antigua
TTITLE5=Abril en Portugal
TTITLE6=La flor de la canela
TTITLE7=Alma llanera
TTITLE8=La vida en rosa
TTITLE9=Tennessee
TTITLE10=Cereso rosa
TTITLE11=Hay jalisco no te rajes
TTITLE12=Varita de Nardo
TTITLE13=Mi ranchito
TTITLE14=El pastor
EXTD=From: The Saint
EXTT0=
EXTT1=
EXTT2=
EXTT3=
EXTT4=
EXTT5=
EXTT6=
EXTT7=
EXTT8=
EXTT9=
EXTT10=
EXTT11=
EXTT12=
EXTT13=
EXTT14=
PLAYORDER=
